<mxfile host="app.diagrams.net" modified="2020-06-17T15:44:20.946Z" agent="5.0 (Windows)" etag="ryCpX9Zgo3JovzXxNxDj" version="13.2.6" type="github">
  <diagram id="PJze8_PbKiR1325xx4xN" name="Page-1">
    <mxGraphModel dx="604" dy="959" grid="1" gridSize="10" guides="1" tooltips="1" connect="1" arrows="1" fold="1" page="1" pageScale="1" pageWidth="827" pageHeight="1169" math="0" shadow="0">
      <root>
        <mxCell id="0" />
        <mxCell id="1" parent="0" />
        <mxCell id="rnPItVgiRQsCZyyG9S52-30" value="Children" style="swimlane;fontStyle=1;childLayout=stackLayout;horizontal=1;startSize=26;horizontalStack=0;resizeParent=1;resizeParentMax=0;resizeLast=0;collapsible=1;marginBottom=0;align=center;fontSize=15;labelBackgroundColor=none;labelBorderColor=none;verticalAlign=middle;strokeWidth=3;" parent="1" vertex="1">
          <mxGeometry x="540" y="190" width="200" height="170" as="geometry" />
        </mxCell>
        <mxCell id="rnPItVgiRQsCZyyG9S52-31" value="id (int)" style="shape=partialRectangle;top=0;left=0;right=0;bottom=1;align=center;verticalAlign=middle;fillColor=none;spacingLeft=34;spacingRight=4;overflow=hidden;rotatable=0;points=[[0,0.5],[1,0.5]];portConstraint=eastwest;dropTarget=0;fontStyle=5;fontSize=15;labelBackgroundColor=none;labelBorderColor=none;strokeWidth=3;" parent="rnPItVgiRQsCZyyG9S52-30" vertex="1">
          <mxGeometry y="26" width="200" height="30" as="geometry" />
        </mxCell>
        <mxCell id="rnPItVgiRQsCZyyG9S52-32" value="PK" style="shape=partialRectangle;top=0;left=0;bottom=0;fillColor=none;align=center;verticalAlign=middle;spacingLeft=4;spacingRight=4;overflow=hidden;rotatable=0;points=[];portConstraint=eastwest;part=1;fontSize=15;labelBackgroundColor=none;labelBorderColor=none;strokeWidth=3;fontStyle=1" parent="rnPItVgiRQsCZyyG9S52-31" vertex="1" connectable="0">
          <mxGeometry width="30" height="30" as="geometry" />
        </mxCell>
        <mxCell id="rnPItVgiRQsCZyyG9S52-39" value="procreator_id (int)" style="shape=partialRectangle;top=0;left=0;right=0;bottom=0;align=center;verticalAlign=middle;fillColor=none;spacingLeft=34;spacingRight=4;overflow=hidden;rotatable=0;points=[[0,0.5],[1,0.5]];portConstraint=eastwest;dropTarget=0;fontSize=15;labelBackgroundColor=none;labelBorderColor=none;strokeWidth=3;fontStyle=1" parent="rnPItVgiRQsCZyyG9S52-30" vertex="1">
          <mxGeometry y="56" width="200" height="26" as="geometry" />
        </mxCell>
        <mxCell id="rnPItVgiRQsCZyyG9S52-40" value="FK" style="shape=partialRectangle;top=0;left=0;bottom=0;fillColor=none;align=center;verticalAlign=middle;spacingLeft=4;spacingRight=4;overflow=hidden;rotatable=0;points=[];portConstraint=eastwest;part=1;fontSize=15;labelBackgroundColor=none;labelBorderColor=none;strokeWidth=3;fontStyle=1" parent="rnPItVgiRQsCZyyG9S52-39" vertex="1" connectable="0">
          <mxGeometry width="30" height="26" as="geometry" />
        </mxCell>
        <mxCell id="rnPItVgiRQsCZyyG9S52-41" value="group_id (int)" style="shape=partialRectangle;top=0;left=0;right=0;bottom=0;align=center;verticalAlign=middle;fillColor=none;spacingLeft=34;spacingRight=4;overflow=hidden;rotatable=0;points=[[0,0.5],[1,0.5]];portConstraint=eastwest;dropTarget=0;fontSize=15;labelBackgroundColor=none;labelBorderColor=none;strokeWidth=3;fontStyle=1" parent="rnPItVgiRQsCZyyG9S52-30" vertex="1">
          <mxGeometry y="82" width="200" height="26" as="geometry" />
        </mxCell>
        <mxCell id="rnPItVgiRQsCZyyG9S52-42" value="FK" style="shape=partialRectangle;top=0;left=0;bottom=0;fillColor=none;align=center;verticalAlign=middle;spacingLeft=4;spacingRight=4;overflow=hidden;rotatable=0;points=[];portConstraint=eastwest;part=1;fontSize=15;labelBackgroundColor=none;labelBorderColor=none;strokeWidth=3;fontStyle=1" parent="rnPItVgiRQsCZyyG9S52-41" vertex="1" connectable="0">
          <mxGeometry width="30" height="26" as="geometry" />
        </mxCell>
        <mxCell id="rnPItVgiRQsCZyyG9S52-33" value="fio (string)" style="shape=partialRectangle;top=0;left=0;right=0;bottom=0;align=center;verticalAlign=middle;fillColor=none;spacingLeft=34;spacingRight=4;overflow=hidden;rotatable=0;points=[[0,0.5],[1,0.5]];portConstraint=eastwest;dropTarget=0;fontSize=15;labelBackgroundColor=none;labelBorderColor=none;strokeWidth=3;fontStyle=1" parent="rnPItVgiRQsCZyyG9S52-30" vertex="1">
          <mxGeometry y="108" width="200" height="26" as="geometry" />
        </mxCell>
        <mxCell id="rnPItVgiRQsCZyyG9S52-34" value="" style="shape=partialRectangle;top=0;left=0;bottom=0;fillColor=none;align=center;verticalAlign=middle;spacingLeft=4;spacingRight=4;overflow=hidden;rotatable=0;points=[];portConstraint=eastwest;part=1;fontSize=15;labelBackgroundColor=none;labelBorderColor=none;strokeWidth=3;fontStyle=1" parent="rnPItVgiRQsCZyyG9S52-33" vertex="1" connectable="0">
          <mxGeometry width="30" height="26" as="geometry" />
        </mxCell>
        <mxCell id="rnPItVgiRQsCZyyG9S52-35" value="age (int)" style="shape=partialRectangle;top=0;left=0;right=0;bottom=0;align=center;verticalAlign=middle;fillColor=none;spacingLeft=34;spacingRight=4;overflow=hidden;rotatable=0;points=[[0,0.5],[1,0.5]];portConstraint=eastwest;dropTarget=0;fontSize=15;labelBackgroundColor=none;labelBorderColor=none;strokeWidth=3;fontStyle=1" parent="rnPItVgiRQsCZyyG9S52-30" vertex="1">
          <mxGeometry y="134" width="200" height="26" as="geometry" />
        </mxCell>
        <mxCell id="rnPItVgiRQsCZyyG9S52-36" value="" style="shape=partialRectangle;top=0;left=0;bottom=0;fillColor=none;align=center;verticalAlign=middle;spacingLeft=4;spacingRight=4;overflow=hidden;rotatable=0;points=[];portConstraint=eastwest;part=1;fontSize=15;labelBackgroundColor=none;labelBorderColor=none;strokeWidth=3;fontStyle=1" parent="rnPItVgiRQsCZyyG9S52-35" vertex="1" connectable="0">
          <mxGeometry width="30" height="26" as="geometry" />
        </mxCell>
        <mxCell id="rnPItVgiRQsCZyyG9S52-37" value="" style="shape=partialRectangle;top=0;left=0;right=0;bottom=0;align=center;verticalAlign=middle;fillColor=none;spacingLeft=34;spacingRight=4;overflow=hidden;rotatable=0;points=[[0,0.5],[1,0.5]];portConstraint=eastwest;dropTarget=0;fontSize=15;labelBackgroundColor=none;labelBorderColor=none;strokeWidth=3;fontStyle=1" parent="rnPItVgiRQsCZyyG9S52-30" vertex="1">
          <mxGeometry y="160" width="200" height="10" as="geometry" />
        </mxCell>
        <mxCell id="rnPItVgiRQsCZyyG9S52-38" value="" style="shape=partialRectangle;top=0;left=0;bottom=0;fillColor=none;align=center;verticalAlign=middle;spacingLeft=4;spacingRight=4;overflow=hidden;rotatable=0;points=[];portConstraint=eastwest;part=1;fontSize=15;labelBackgroundColor=none;labelBorderColor=none;strokeWidth=3;fontStyle=1" parent="rnPItVgiRQsCZyyG9S52-37" vertex="1" connectable="0">
          <mxGeometry width="30" height="10" as="geometry" />
        </mxCell>
        <mxCell id="rnPItVgiRQsCZyyG9S52-2" value="Procreators" style="swimlane;fontStyle=1;childLayout=stackLayout;horizontal=1;startSize=26;horizontalStack=0;resizeParent=1;resizeParentMax=0;resizeLast=0;collapsible=1;marginBottom=0;align=center;fontSize=15;labelBackgroundColor=none;labelBorderColor=none;verticalAlign=middle;strokeWidth=3;" parent="1" vertex="1">
          <mxGeometry x="280" y="160" width="200" height="118" as="geometry" />
        </mxCell>
        <mxCell id="rnPItVgiRQsCZyyG9S52-3" value="id (int)" style="shape=partialRectangle;top=0;left=0;right=0;bottom=1;align=center;verticalAlign=middle;fillColor=none;spacingLeft=34;spacingRight=4;overflow=hidden;rotatable=0;points=[[0,0.5],[1,0.5]];portConstraint=eastwest;dropTarget=0;fontStyle=5;fontSize=15;labelBackgroundColor=none;labelBorderColor=none;strokeWidth=3;" parent="rnPItVgiRQsCZyyG9S52-2" vertex="1">
          <mxGeometry y="26" width="200" height="30" as="geometry" />
        </mxCell>
        <mxCell id="rnPItVgiRQsCZyyG9S52-4" value="PK" style="shape=partialRectangle;top=0;left=0;bottom=0;fillColor=none;align=center;verticalAlign=middle;spacingLeft=4;spacingRight=4;overflow=hidden;rotatable=0;points=[];portConstraint=eastwest;part=1;fontSize=15;labelBackgroundColor=none;labelBorderColor=none;strokeWidth=3;fontStyle=1" parent="rnPItVgiRQsCZyyG9S52-3" vertex="1" connectable="0">
          <mxGeometry width="30" height="30" as="geometry" />
        </mxCell>
        <mxCell id="rnPItVgiRQsCZyyG9S52-5" value="fio (string)" style="shape=partialRectangle;top=0;left=0;right=0;bottom=0;align=center;verticalAlign=middle;fillColor=none;spacingLeft=34;spacingRight=4;overflow=hidden;rotatable=0;points=[[0,0.5],[1,0.5]];portConstraint=eastwest;dropTarget=0;fontSize=15;labelBackgroundColor=none;labelBorderColor=none;strokeWidth=3;fontStyle=1" parent="rnPItVgiRQsCZyyG9S52-2" vertex="1">
          <mxGeometry y="56" width="200" height="26" as="geometry" />
        </mxCell>
        <mxCell id="rnPItVgiRQsCZyyG9S52-6" value="" style="shape=partialRectangle;top=0;left=0;bottom=0;fillColor=none;align=center;verticalAlign=middle;spacingLeft=4;spacingRight=4;overflow=hidden;rotatable=0;points=[];portConstraint=eastwest;part=1;fontSize=15;labelBackgroundColor=none;labelBorderColor=none;strokeWidth=3;fontStyle=1" parent="rnPItVgiRQsCZyyG9S52-5" vertex="1" connectable="0">
          <mxGeometry width="30" height="26" as="geometry" />
        </mxCell>
        <mxCell id="rnPItVgiRQsCZyyG9S52-7" value="phone (varchar(12))" style="shape=partialRectangle;top=0;left=0;right=0;bottom=0;align=center;verticalAlign=middle;fillColor=none;spacingLeft=34;spacingRight=4;overflow=hidden;rotatable=0;points=[[0,0.5],[1,0.5]];portConstraint=eastwest;dropTarget=0;fontSize=15;labelBackgroundColor=none;labelBorderColor=none;strokeWidth=3;fontStyle=1" parent="rnPItVgiRQsCZyyG9S52-2" vertex="1">
          <mxGeometry y="82" width="200" height="26" as="geometry" />
        </mxCell>
        <mxCell id="rnPItVgiRQsCZyyG9S52-8" value="" style="shape=partialRectangle;top=0;left=0;bottom=0;fillColor=none;align=center;verticalAlign=middle;spacingLeft=4;spacingRight=4;overflow=hidden;rotatable=0;points=[];portConstraint=eastwest;part=1;fontSize=15;labelBackgroundColor=none;labelBorderColor=none;strokeWidth=3;fontStyle=1" parent="rnPItVgiRQsCZyyG9S52-7" vertex="1" connectable="0">
          <mxGeometry width="30" height="26" as="geometry" />
        </mxCell>
        <mxCell id="rnPItVgiRQsCZyyG9S52-11" value="" style="shape=partialRectangle;top=0;left=0;right=0;bottom=0;align=center;verticalAlign=middle;fillColor=none;spacingLeft=34;spacingRight=4;overflow=hidden;rotatable=0;points=[[0,0.5],[1,0.5]];portConstraint=eastwest;dropTarget=0;fontSize=15;labelBackgroundColor=none;labelBorderColor=none;strokeWidth=3;fontStyle=1" parent="rnPItVgiRQsCZyyG9S52-2" vertex="1">
          <mxGeometry y="108" width="200" height="10" as="geometry" />
        </mxCell>
        <mxCell id="rnPItVgiRQsCZyyG9S52-12" value="" style="shape=partialRectangle;top=0;left=0;bottom=0;fillColor=none;align=center;verticalAlign=middle;spacingLeft=4;spacingRight=4;overflow=hidden;rotatable=0;points=[];portConstraint=eastwest;part=1;fontSize=15;labelBackgroundColor=none;labelBorderColor=none;strokeWidth=3;fontStyle=1" parent="rnPItVgiRQsCZyyG9S52-11" vertex="1" connectable="0">
          <mxGeometry width="30" height="10" as="geometry" />
        </mxCell>
        <mxCell id="rnPItVgiRQsCZyyG9S52-20" value="Groups" style="swimlane;fontStyle=1;childLayout=stackLayout;horizontal=1;startSize=26;horizontalStack=0;resizeParent=1;resizeParentMax=0;resizeLast=0;collapsible=1;marginBottom=0;align=center;fontSize=15;labelBackgroundColor=none;labelBorderColor=none;verticalAlign=middle;strokeWidth=3;" parent="1" vertex="1">
          <mxGeometry x="280" y="320" width="200" height="92" as="geometry" />
        </mxCell>
        <mxCell id="rnPItVgiRQsCZyyG9S52-21" value="id (int)" style="shape=partialRectangle;top=0;left=0;right=0;bottom=1;align=center;verticalAlign=middle;fillColor=none;spacingLeft=34;spacingRight=4;overflow=hidden;rotatable=0;points=[[0,0.5],[1,0.5]];portConstraint=eastwest;dropTarget=0;fontStyle=5;fontSize=15;labelBackgroundColor=none;labelBorderColor=none;strokeWidth=3;" parent="rnPItVgiRQsCZyyG9S52-20" vertex="1">
          <mxGeometry y="26" width="200" height="30" as="geometry" />
        </mxCell>
        <mxCell id="rnPItVgiRQsCZyyG9S52-22" value="PK" style="shape=partialRectangle;top=0;left=0;bottom=0;fillColor=none;align=center;verticalAlign=middle;spacingLeft=4;spacingRight=4;overflow=hidden;rotatable=0;points=[];portConstraint=eastwest;part=1;fontSize=15;labelBackgroundColor=none;labelBorderColor=none;strokeWidth=3;fontStyle=1" parent="rnPItVgiRQsCZyyG9S52-21" vertex="1" connectable="0">
          <mxGeometry width="30" height="30" as="geometry" />
        </mxCell>
        <mxCell id="rnPItVgiRQsCZyyG9S52-23" value="about (string)" style="shape=partialRectangle;top=0;left=0;right=0;bottom=0;align=center;verticalAlign=middle;fillColor=none;spacingLeft=34;spacingRight=4;overflow=hidden;rotatable=0;points=[[0,0.5],[1,0.5]];portConstraint=eastwest;dropTarget=0;fontSize=15;labelBackgroundColor=none;labelBorderColor=none;strokeWidth=3;fontStyle=1" parent="rnPItVgiRQsCZyyG9S52-20" vertex="1">
          <mxGeometry y="56" width="200" height="26" as="geometry" />
        </mxCell>
        <mxCell id="rnPItVgiRQsCZyyG9S52-24" value="" style="shape=partialRectangle;top=0;left=0;bottom=0;fillColor=none;align=center;verticalAlign=middle;spacingLeft=4;spacingRight=4;overflow=hidden;rotatable=0;points=[];portConstraint=eastwest;part=1;fontSize=15;labelBackgroundColor=none;labelBorderColor=none;strokeWidth=3;fontStyle=1" parent="rnPItVgiRQsCZyyG9S52-23" vertex="1" connectable="0">
          <mxGeometry width="30" height="26" as="geometry" />
        </mxCell>
        <mxCell id="rnPItVgiRQsCZyyG9S52-27" value="" style="shape=partialRectangle;top=0;left=0;right=0;bottom=0;align=center;verticalAlign=middle;fillColor=none;spacingLeft=34;spacingRight=4;overflow=hidden;rotatable=0;points=[[0,0.5],[1,0.5]];portConstraint=eastwest;dropTarget=0;fontSize=15;labelBackgroundColor=none;labelBorderColor=none;strokeWidth=3;fontStyle=1" parent="rnPItVgiRQsCZyyG9S52-20" vertex="1">
          <mxGeometry y="82" width="200" height="10" as="geometry" />
        </mxCell>
        <mxCell id="rnPItVgiRQsCZyyG9S52-28" value="" style="shape=partialRectangle;top=0;left=0;bottom=0;fillColor=none;align=center;verticalAlign=middle;spacingLeft=4;spacingRight=4;overflow=hidden;rotatable=0;points=[];portConstraint=eastwest;part=1;fontSize=15;labelBackgroundColor=none;labelBorderColor=none;strokeWidth=3;fontStyle=1" parent="rnPItVgiRQsCZyyG9S52-27" vertex="1" connectable="0">
          <mxGeometry width="30" height="10" as="geometry" />
        </mxCell>
        <mxCell id="rnPItVgiRQsCZyyG9S52-96" value="" style="edgeStyle=entityRelationEdgeStyle;fontSize=15;endArrow=ERoneToMany;align=center;exitX=1;exitY=0.611;exitDx=0;exitDy=0;exitPerimeter=0;labelBackgroundColor=none;labelBorderColor=none;verticalAlign=middle;strokeWidth=3;fontStyle=1" parent="1" source="rnPItVgiRQsCZyyG9S52-3" target="rnPItVgiRQsCZyyG9S52-39" edge="1">
          <mxGeometry width="100" height="100" relative="1" as="geometry">
            <mxPoint x="480" y="210" as="sourcePoint" />
            <mxPoint x="580" y="100" as="targetPoint" />
          </mxGeometry>
        </mxCell>
        <mxCell id="rnPItVgiRQsCZyyG9S52-97" value="" style="edgeStyle=entityRelationEdgeStyle;fontSize=15;endArrow=ERoneToMany;align=center;exitX=1.001;exitY=0.249;exitDx=0;exitDy=0;labelBackgroundColor=none;labelBorderColor=none;verticalAlign=middle;entryX=0;entryY=0.5;entryDx=0;entryDy=0;exitPerimeter=0;strokeWidth=3;fontStyle=1" parent="1" source="rnPItVgiRQsCZyyG9S52-21" target="rnPItVgiRQsCZyyG9S52-41" edge="1">
          <mxGeometry width="100" height="100" relative="1" as="geometry">
            <mxPoint x="520" y="385.3299999999999" as="sourcePoint" />
            <mxPoint x="580" y="440" as="targetPoint" />
          </mxGeometry>
        </mxCell>
        <mxCell id="rnPItVgiRQsCZyyG9S52-67" value="Statuses" style="swimlane;fontStyle=1;childLayout=stackLayout;horizontal=1;startSize=26;horizontalStack=0;resizeParent=1;resizeParentMax=0;resizeLast=0;collapsible=1;marginBottom=0;align=center;fontSize=15;labelBackgroundColor=none;labelBorderColor=none;verticalAlign=middle;strokeWidth=3;" parent="1" vertex="1">
          <mxGeometry x="540" y="380" width="200" height="92" as="geometry" />
        </mxCell>
        <mxCell id="rnPItVgiRQsCZyyG9S52-68" value="id (int)" style="shape=partialRectangle;top=0;left=0;right=0;bottom=1;align=center;verticalAlign=middle;fillColor=none;spacingLeft=34;spacingRight=4;overflow=hidden;rotatable=0;points=[[0,0.5],[1,0.5]];portConstraint=eastwest;dropTarget=0;fontStyle=5;fontSize=15;labelBackgroundColor=none;labelBorderColor=none;strokeWidth=3;" parent="rnPItVgiRQsCZyyG9S52-67" vertex="1">
          <mxGeometry y="26" width="200" height="30" as="geometry" />
        </mxCell>
        <mxCell id="rnPItVgiRQsCZyyG9S52-69" value="PK" style="shape=partialRectangle;top=0;left=0;bottom=0;fillColor=none;align=center;verticalAlign=middle;spacingLeft=4;spacingRight=4;overflow=hidden;rotatable=0;points=[];portConstraint=eastwest;part=1;fontSize=15;labelBackgroundColor=none;labelBorderColor=none;strokeWidth=3;fontStyle=1" parent="rnPItVgiRQsCZyyG9S52-68" vertex="1" connectable="0">
          <mxGeometry width="30" height="30" as="geometry" />
        </mxCell>
        <mxCell id="rnPItVgiRQsCZyyG9S52-70" value="about (string)" style="shape=partialRectangle;top=0;left=0;right=0;bottom=0;align=center;verticalAlign=middle;fillColor=none;spacingLeft=34;spacingRight=4;overflow=hidden;rotatable=0;points=[[0,0.5],[1,0.5]];portConstraint=eastwest;dropTarget=0;fontSize=15;labelBackgroundColor=none;labelBorderColor=none;strokeWidth=3;fontStyle=1" parent="rnPItVgiRQsCZyyG9S52-67" vertex="1">
          <mxGeometry y="56" width="200" height="26" as="geometry" />
        </mxCell>
        <mxCell id="rnPItVgiRQsCZyyG9S52-71" value="" style="shape=partialRectangle;top=0;left=0;bottom=0;fillColor=none;align=center;verticalAlign=middle;spacingLeft=4;spacingRight=4;overflow=hidden;rotatable=0;points=[];portConstraint=eastwest;part=1;fontSize=15;labelBackgroundColor=none;labelBorderColor=none;strokeWidth=3;fontStyle=1" parent="rnPItVgiRQsCZyyG9S52-70" vertex="1" connectable="0">
          <mxGeometry width="30" height="26" as="geometry" />
        </mxCell>
        <mxCell id="rnPItVgiRQsCZyyG9S52-72" value="" style="shape=partialRectangle;top=0;left=0;right=0;bottom=0;align=center;verticalAlign=middle;fillColor=none;spacingLeft=34;spacingRight=4;overflow=hidden;rotatable=0;points=[[0,0.5],[1,0.5]];portConstraint=eastwest;dropTarget=0;fontSize=15;labelBackgroundColor=none;labelBorderColor=none;strokeWidth=3;fontStyle=1" parent="rnPItVgiRQsCZyyG9S52-67" vertex="1">
          <mxGeometry y="82" width="200" height="10" as="geometry" />
        </mxCell>
        <mxCell id="rnPItVgiRQsCZyyG9S52-73" value="" style="shape=partialRectangle;top=0;left=0;bottom=0;fillColor=none;align=center;verticalAlign=middle;spacingLeft=4;spacingRight=4;overflow=hidden;rotatable=0;points=[];portConstraint=eastwest;part=1;fontSize=15;labelBackgroundColor=none;labelBorderColor=none;strokeWidth=3;fontStyle=1" parent="rnPItVgiRQsCZyyG9S52-72" vertex="1" connectable="0">
          <mxGeometry width="30" height="10" as="geometry" />
        </mxCell>
        <mxCell id="rnPItVgiRQsCZyyG9S52-43" value="Days" style="swimlane;fontStyle=1;childLayout=stackLayout;horizontal=1;startSize=26;horizontalStack=0;resizeParent=1;resizeParentMax=0;resizeLast=0;collapsible=1;marginBottom=0;align=center;fontSize=15;labelBackgroundColor=none;labelBorderColor=none;verticalAlign=middle;strokeWidth=3;" parent="1" vertex="1">
          <mxGeometry x="540" y="493" width="200" height="92" as="geometry" />
        </mxCell>
        <mxCell id="rnPItVgiRQsCZyyG9S52-44" value="id (int)" style="shape=partialRectangle;top=0;left=0;right=0;bottom=1;align=center;verticalAlign=middle;fillColor=none;spacingLeft=34;spacingRight=4;overflow=hidden;rotatable=0;points=[[0,0.5],[1,0.5]];portConstraint=eastwest;dropTarget=0;fontStyle=5;fontSize=15;labelBackgroundColor=none;labelBorderColor=none;strokeWidth=3;" parent="rnPItVgiRQsCZyyG9S52-43" vertex="1">
          <mxGeometry y="26" width="200" height="30" as="geometry" />
        </mxCell>
        <mxCell id="rnPItVgiRQsCZyyG9S52-45" value="PK" style="shape=partialRectangle;top=0;left=0;bottom=0;fillColor=none;align=center;verticalAlign=middle;spacingLeft=4;spacingRight=4;overflow=hidden;rotatable=0;points=[];portConstraint=eastwest;part=1;fontSize=15;labelBackgroundColor=none;labelBorderColor=none;strokeWidth=3;fontStyle=1" parent="rnPItVgiRQsCZyyG9S52-44" vertex="1" connectable="0">
          <mxGeometry width="30" height="30" as="geometry" />
        </mxCell>
        <mxCell id="rnPItVgiRQsCZyyG9S52-46" value="day (varchar(2))" style="shape=partialRectangle;top=0;left=0;right=0;bottom=0;align=center;verticalAlign=middle;fillColor=none;spacingLeft=34;spacingRight=4;overflow=hidden;rotatable=0;points=[[0,0.5],[1,0.5]];portConstraint=eastwest;dropTarget=0;fontSize=15;labelBackgroundColor=none;labelBorderColor=none;strokeWidth=3;fontStyle=1" parent="rnPItVgiRQsCZyyG9S52-43" vertex="1">
          <mxGeometry y="56" width="200" height="26" as="geometry" />
        </mxCell>
        <mxCell id="rnPItVgiRQsCZyyG9S52-47" value="" style="shape=partialRectangle;top=0;left=0;bottom=0;fillColor=none;align=center;verticalAlign=middle;spacingLeft=4;spacingRight=4;overflow=hidden;rotatable=0;points=[];portConstraint=eastwest;part=1;fontSize=15;labelBackgroundColor=none;labelBorderColor=none;strokeWidth=3;fontStyle=1" parent="rnPItVgiRQsCZyyG9S52-46" vertex="1" connectable="0">
          <mxGeometry width="30" height="26" as="geometry" />
        </mxCell>
        <mxCell id="rnPItVgiRQsCZyyG9S52-48" value="" style="shape=partialRectangle;top=0;left=0;right=0;bottom=0;align=center;verticalAlign=middle;fillColor=none;spacingLeft=34;spacingRight=4;overflow=hidden;rotatable=0;points=[[0,0.5],[1,0.5]];portConstraint=eastwest;dropTarget=0;fontSize=15;labelBackgroundColor=none;labelBorderColor=none;strokeWidth=3;fontStyle=1" parent="rnPItVgiRQsCZyyG9S52-43" vertex="1">
          <mxGeometry y="82" width="200" height="10" as="geometry" />
        </mxCell>
        <mxCell id="rnPItVgiRQsCZyyG9S52-49" value="" style="shape=partialRectangle;top=0;left=0;bottom=0;fillColor=none;align=center;verticalAlign=middle;spacingLeft=4;spacingRight=4;overflow=hidden;rotatable=0;points=[];portConstraint=eastwest;part=1;fontSize=15;labelBackgroundColor=none;labelBorderColor=none;strokeWidth=3;fontStyle=1" parent="rnPItVgiRQsCZyyG9S52-48" vertex="1" connectable="0">
          <mxGeometry width="30" height="10" as="geometry" />
        </mxCell>
        <mxCell id="rnPItVgiRQsCZyyG9S52-50" value="Schedule" style="swimlane;fontStyle=1;childLayout=stackLayout;horizontal=1;startSize=26;horizontalStack=0;resizeParent=1;resizeParentMax=0;resizeLast=0;collapsible=1;marginBottom=0;align=center;fontSize=15;labelBackgroundColor=none;labelBorderColor=none;verticalAlign=middle;strokeWidth=3;" parent="1" vertex="1">
          <mxGeometry x="540" y="610" width="200" height="170" as="geometry" />
        </mxCell>
        <mxCell id="rnPItVgiRQsCZyyG9S52-51" value="id (int)" style="shape=partialRectangle;top=0;left=0;right=0;bottom=1;align=center;verticalAlign=middle;fillColor=none;spacingLeft=34;spacingRight=4;overflow=hidden;rotatable=0;points=[[0,0.5],[1,0.5]];portConstraint=eastwest;dropTarget=0;fontStyle=5;fontSize=15;labelBackgroundColor=none;labelBorderColor=none;strokeWidth=3;" parent="rnPItVgiRQsCZyyG9S52-50" vertex="1">
          <mxGeometry y="26" width="200" height="30" as="geometry" />
        </mxCell>
        <mxCell id="rnPItVgiRQsCZyyG9S52-52" value="PK" style="shape=partialRectangle;top=0;left=0;bottom=0;fillColor=none;align=center;verticalAlign=middle;spacingLeft=4;spacingRight=4;overflow=hidden;rotatable=0;points=[];portConstraint=eastwest;part=1;fontSize=15;labelBackgroundColor=none;labelBorderColor=none;strokeWidth=3;fontStyle=1" parent="rnPItVgiRQsCZyyG9S52-51" vertex="1" connectable="0">
          <mxGeometry width="30" height="30" as="geometry" />
        </mxCell>
        <mxCell id="rnPItVgiRQsCZyyG9S52-53" value="day_id (int)" style="shape=partialRectangle;top=0;left=0;right=0;bottom=0;align=center;verticalAlign=middle;fillColor=none;spacingLeft=34;spacingRight=4;overflow=hidden;rotatable=0;points=[[0,0.5],[1,0.5]];portConstraint=eastwest;dropTarget=0;fontSize=15;labelBackgroundColor=none;labelBorderColor=none;strokeWidth=3;fontStyle=1" parent="rnPItVgiRQsCZyyG9S52-50" vertex="1">
          <mxGeometry y="56" width="200" height="26" as="geometry" />
        </mxCell>
        <mxCell id="rnPItVgiRQsCZyyG9S52-54" value="FK" style="shape=partialRectangle;top=0;left=0;bottom=0;fillColor=none;align=center;verticalAlign=middle;spacingLeft=4;spacingRight=4;overflow=hidden;rotatable=0;points=[];portConstraint=eastwest;part=1;fontSize=15;labelBackgroundColor=none;labelBorderColor=none;strokeWidth=3;fontStyle=1" parent="rnPItVgiRQsCZyyG9S52-53" vertex="1" connectable="0">
          <mxGeometry width="30" height="26" as="geometry" />
        </mxCell>
        <mxCell id="rnPItVgiRQsCZyyG9S52-55" value="group_id (int)" style="shape=partialRectangle;top=0;left=0;right=0;bottom=0;align=center;verticalAlign=middle;fillColor=none;spacingLeft=34;spacingRight=4;overflow=hidden;rotatable=0;points=[[0,0.5],[1,0.5]];portConstraint=eastwest;dropTarget=0;fontSize=15;labelBackgroundColor=none;labelBorderColor=none;strokeWidth=3;fontStyle=1" parent="rnPItVgiRQsCZyyG9S52-50" vertex="1">
          <mxGeometry y="82" width="200" height="26" as="geometry" />
        </mxCell>
        <mxCell id="rnPItVgiRQsCZyyG9S52-56" value="FK" style="shape=partialRectangle;top=0;left=0;bottom=0;fillColor=none;align=center;verticalAlign=middle;spacingLeft=4;spacingRight=4;overflow=hidden;rotatable=0;points=[];portConstraint=eastwest;part=1;fontSize=15;labelBackgroundColor=none;labelBorderColor=none;strokeWidth=3;fontStyle=1" parent="rnPItVgiRQsCZyyG9S52-55" vertex="1" connectable="0">
          <mxGeometry width="30" height="26" as="geometry" />
        </mxCell>
        <mxCell id="rnPItVgiRQsCZyyG9S52-57" value="hour (time)" style="shape=partialRectangle;top=0;left=0;right=0;bottom=0;align=center;verticalAlign=middle;fillColor=none;spacingLeft=34;spacingRight=4;overflow=hidden;rotatable=0;points=[[0,0.5],[1,0.5]];portConstraint=eastwest;dropTarget=0;fontSize=15;labelBackgroundColor=none;labelBorderColor=none;strokeWidth=3;fontStyle=1" parent="rnPItVgiRQsCZyyG9S52-50" vertex="1">
          <mxGeometry y="108" width="200" height="26" as="geometry" />
        </mxCell>
        <mxCell id="rnPItVgiRQsCZyyG9S52-58" value="" style="shape=partialRectangle;top=0;left=0;bottom=0;fillColor=none;align=center;verticalAlign=middle;spacingLeft=4;spacingRight=4;overflow=hidden;rotatable=0;points=[];portConstraint=eastwest;part=1;fontSize=15;labelBackgroundColor=none;labelBorderColor=none;strokeWidth=3;fontStyle=1" parent="rnPItVgiRQsCZyyG9S52-57" vertex="1" connectable="0">
          <mxGeometry width="30" height="26" as="geometry" />
        </mxCell>
        <mxCell id="rnPItVgiRQsCZyyG9S52-59" value="status (boolean)" style="shape=partialRectangle;top=0;left=0;right=0;bottom=0;align=center;verticalAlign=middle;fillColor=none;spacingLeft=34;spacingRight=4;overflow=hidden;rotatable=0;points=[[0,0.5],[1,0.5]];portConstraint=eastwest;dropTarget=0;fontSize=15;labelBackgroundColor=none;labelBorderColor=none;strokeWidth=3;fontStyle=1" parent="rnPItVgiRQsCZyyG9S52-50" vertex="1">
          <mxGeometry y="134" width="200" height="26" as="geometry" />
        </mxCell>
        <mxCell id="rnPItVgiRQsCZyyG9S52-60" value="" style="shape=partialRectangle;top=0;left=0;bottom=0;fillColor=none;align=center;verticalAlign=middle;spacingLeft=4;spacingRight=4;overflow=hidden;rotatable=0;points=[];portConstraint=eastwest;part=1;fontSize=15;labelBackgroundColor=none;labelBorderColor=none;strokeWidth=3;fontStyle=1" parent="rnPItVgiRQsCZyyG9S52-59" vertex="1" connectable="0">
          <mxGeometry width="30" height="26" as="geometry" />
        </mxCell>
        <mxCell id="rnPItVgiRQsCZyyG9S52-61" value="" style="shape=partialRectangle;top=0;left=0;right=0;bottom=0;align=center;verticalAlign=middle;fillColor=none;spacingLeft=34;spacingRight=4;overflow=hidden;rotatable=0;points=[[0,0.5],[1,0.5]];portConstraint=eastwest;dropTarget=0;fontSize=15;labelBackgroundColor=none;labelBorderColor=none;strokeWidth=3;fontStyle=1" parent="rnPItVgiRQsCZyyG9S52-50" vertex="1">
          <mxGeometry y="160" width="200" height="10" as="geometry" />
        </mxCell>
        <mxCell id="rnPItVgiRQsCZyyG9S52-62" value="" style="shape=partialRectangle;top=0;left=0;bottom=0;fillColor=none;align=center;verticalAlign=middle;spacingLeft=4;spacingRight=4;overflow=hidden;rotatable=0;points=[];portConstraint=eastwest;part=1;fontSize=15;labelBackgroundColor=none;labelBorderColor=none;strokeWidth=3;fontStyle=1" parent="rnPItVgiRQsCZyyG9S52-61" vertex="1" connectable="0">
          <mxGeometry width="30" height="10" as="geometry" />
        </mxCell>
        <mxCell id="rnPItVgiRQsCZyyG9S52-98" value="" style="edgeStyle=entityRelationEdgeStyle;fontSize=15;endArrow=ERoneToMany;align=center;exitX=1;exitY=0.5;exitDx=0;exitDy=0;labelBackgroundColor=none;labelBorderColor=none;verticalAlign=middle;entryX=0;entryY=0.5;entryDx=0;entryDy=0;strokeWidth=3;fontStyle=1" parent="1" source="rnPItVgiRQsCZyyG9S52-21" target="rnPItVgiRQsCZyyG9S52-55" edge="1">
          <mxGeometry width="100" height="100" relative="1" as="geometry">
            <mxPoint x="400.00000000000006" y="558.4699999999999" as="sourcePoint" />
            <mxPoint x="480" y="560" as="targetPoint" />
          </mxGeometry>
        </mxCell>
        <mxCell id="rnPItVgiRQsCZyyG9S52-74" value="Clients" style="swimlane;fontStyle=1;childLayout=stackLayout;horizontal=1;startSize=26;horizontalStack=0;resizeParent=1;resizeParentMax=0;resizeLast=0;collapsible=1;marginBottom=0;align=center;fontSize=15;labelBackgroundColor=none;labelBorderColor=none;verticalAlign=middle;strokeWidth=3;" parent="1" vertex="1">
          <mxGeometry x="800" y="280" width="200" height="170" as="geometry" />
        </mxCell>
        <mxCell id="rnPItVgiRQsCZyyG9S52-75" value="id (int)" style="shape=partialRectangle;top=0;left=0;right=0;bottom=1;align=center;verticalAlign=middle;fillColor=none;spacingLeft=34;spacingRight=4;overflow=hidden;rotatable=0;points=[[0,0.5],[1,0.5]];portConstraint=eastwest;dropTarget=0;fontStyle=5;fontSize=15;labelBackgroundColor=none;labelBorderColor=none;strokeWidth=3;" parent="rnPItVgiRQsCZyyG9S52-74" vertex="1">
          <mxGeometry y="26" width="200" height="30" as="geometry" />
        </mxCell>
        <mxCell id="rnPItVgiRQsCZyyG9S52-76" value="PK" style="shape=partialRectangle;top=0;left=0;bottom=0;fillColor=none;align=center;verticalAlign=middle;spacingLeft=4;spacingRight=4;overflow=hidden;rotatable=0;points=[];portConstraint=eastwest;part=1;fontSize=15;labelBackgroundColor=none;labelBorderColor=none;strokeWidth=3;fontStyle=1" parent="rnPItVgiRQsCZyyG9S52-75" vertex="1" connectable="0">
          <mxGeometry width="30" height="30" as="geometry" />
        </mxCell>
        <mxCell id="rnPItVgiRQsCZyyG9S52-77" value="child_id (int)" style="shape=partialRectangle;top=0;left=0;right=0;bottom=0;align=center;verticalAlign=middle;fillColor=none;spacingLeft=34;spacingRight=4;overflow=hidden;rotatable=0;points=[[0,0.5],[1,0.5]];portConstraint=eastwest;dropTarget=0;fontSize=15;labelBackgroundColor=none;labelBorderColor=none;strokeWidth=3;fontStyle=1" parent="rnPItVgiRQsCZyyG9S52-74" vertex="1">
          <mxGeometry y="56" width="200" height="26" as="geometry" />
        </mxCell>
        <mxCell id="rnPItVgiRQsCZyyG9S52-78" value="FK" style="shape=partialRectangle;top=0;left=0;bottom=0;fillColor=none;align=center;verticalAlign=middle;spacingLeft=4;spacingRight=4;overflow=hidden;rotatable=0;points=[];portConstraint=eastwest;part=1;fontSize=15;labelBackgroundColor=none;labelBorderColor=none;strokeWidth=3;fontStyle=1" parent="rnPItVgiRQsCZyyG9S52-77" vertex="1" connectable="0">
          <mxGeometry width="30" height="26" as="geometry" />
        </mxCell>
        <mxCell id="rnPItVgiRQsCZyyG9S52-79" value="client_status (int)" style="shape=partialRectangle;top=0;left=0;right=0;bottom=0;align=center;verticalAlign=middle;fillColor=none;spacingLeft=34;spacingRight=4;overflow=hidden;rotatable=0;points=[[0,0.5],[1,0.5]];portConstraint=eastwest;dropTarget=0;fontSize=15;labelBackgroundColor=none;labelBorderColor=none;strokeWidth=3;fontStyle=1" parent="rnPItVgiRQsCZyyG9S52-74" vertex="1">
          <mxGeometry y="82" width="200" height="26" as="geometry" />
        </mxCell>
        <mxCell id="rnPItVgiRQsCZyyG9S52-80" value="FK" style="shape=partialRectangle;top=0;left=0;bottom=0;fillColor=none;align=center;verticalAlign=middle;spacingLeft=4;spacingRight=4;overflow=hidden;rotatable=0;points=[];portConstraint=eastwest;part=1;fontSize=15;labelBackgroundColor=none;labelBorderColor=none;strokeWidth=3;fontStyle=1" parent="rnPItVgiRQsCZyyG9S52-79" vertex="1" connectable="0">
          <mxGeometry width="30" height="26" as="geometry" />
        </mxCell>
        <mxCell id="rnPItVgiRQsCZyyG9S52-81" value="" style="shape=partialRectangle;top=0;left=0;right=0;bottom=0;align=center;verticalAlign=middle;fillColor=none;spacingLeft=34;spacingRight=4;overflow=hidden;rotatable=0;points=[[0,0.5],[1,0.5]];portConstraint=eastwest;dropTarget=0;fontSize=15;labelBackgroundColor=none;labelBorderColor=none;strokeWidth=3;fontStyle=1" parent="rnPItVgiRQsCZyyG9S52-74" vertex="1">
          <mxGeometry y="108" width="200" height="62" as="geometry" />
        </mxCell>
        <mxCell id="rnPItVgiRQsCZyyG9S52-82" value="" style="shape=partialRectangle;top=0;left=0;bottom=0;fillColor=none;align=center;verticalAlign=middle;spacingLeft=4;spacingRight=4;overflow=hidden;rotatable=0;points=[];portConstraint=eastwest;part=1;fontSize=15;labelBackgroundColor=none;labelBorderColor=none;strokeWidth=3;fontStyle=1" parent="rnPItVgiRQsCZyyG9S52-81" vertex="1" connectable="0">
          <mxGeometry width="30" height="62" as="geometry" />
        </mxCell>
        <mxCell id="rnPItVgiRQsCZyyG9S52-99" value="" style="edgeStyle=entityRelationEdgeStyle;fontSize=15;endArrow=ERoneToMany;align=center;exitX=1;exitY=0.5;exitDx=0;exitDy=0;labelBackgroundColor=none;labelBorderColor=none;verticalAlign=middle;strokeWidth=3;fontStyle=1" parent="1" source="rnPItVgiRQsCZyyG9S52-75" target="rnPItVgiRQsCZyyG9S52-90" edge="1">
          <mxGeometry width="100" height="100" relative="1" as="geometry">
            <mxPoint x="1050" y="343.3299999999999" as="sourcePoint" />
            <mxPoint x="1110" y="398" as="targetPoint" />
          </mxGeometry>
        </mxCell>
        <mxCell id="rnPItVgiRQsCZyyG9S52-100" value="" style="edgeStyle=entityRelationEdgeStyle;fontSize=15;endArrow=ERoneToMany;align=center;exitX=1;exitY=0.611;exitDx=0;exitDy=0;exitPerimeter=0;labelBackgroundColor=none;labelBorderColor=none;verticalAlign=middle;entryX=0;entryY=0.5;entryDx=0;entryDy=0;strokeWidth=3;fontStyle=1" parent="1" target="rnPItVgiRQsCZyyG9S52-77" edge="1">
          <mxGeometry width="100" height="100" relative="1" as="geometry">
            <mxPoint x="740" y="229.99999999999991" as="sourcePoint" />
            <mxPoint x="800" y="284.67" as="targetPoint" />
          </mxGeometry>
        </mxCell>
        <mxCell id="rnPItVgiRQsCZyyG9S52-111" value="" style="edgeStyle=entityRelationEdgeStyle;fontSize=15;endArrow=ERoneToMany;align=center;exitX=1;exitY=0.611;exitDx=0;exitDy=0;exitPerimeter=0;labelBackgroundColor=none;labelBorderColor=none;verticalAlign=middle;entryX=0;entryY=0.5;entryDx=0;entryDy=0;strokeWidth=3;fontStyle=1" parent="1" target="rnPItVgiRQsCZyyG9S52-79" edge="1">
          <mxGeometry width="100" height="100" relative="1" as="geometry">
            <mxPoint x="740" y="417.3299999999999" as="sourcePoint" />
            <mxPoint x="800" y="472" as="targetPoint" />
          </mxGeometry>
        </mxCell>
        <mxCell id="rnPItVgiRQsCZyyG9S52-112" value="" style="edgeStyle=entityRelationEdgeStyle;fontSize=15;endArrow=ERoneToMany;align=center;exitX=1;exitY=0.5;exitDx=0;exitDy=0;labelBackgroundColor=none;labelBorderColor=none;verticalAlign=middle;strokeWidth=3;fontStyle=1" parent="1" source="rnPItVgiRQsCZyyG9S52-44" target="rnPItVgiRQsCZyyG9S52-53" edge="1">
          <mxGeometry width="100" height="100" relative="1" as="geometry">
            <mxPoint x="760" y="557" as="sourcePoint" />
            <mxPoint x="790" y="680" as="targetPoint" />
          </mxGeometry>
        </mxCell>
        <mxCell id="rnPItVgiRQsCZyyG9S52-83" value="Records" style="swimlane;fontStyle=1;childLayout=stackLayout;horizontal=1;startSize=26;horizontalStack=0;resizeParent=1;resizeParentMax=0;resizeLast=0;collapsible=1;marginBottom=0;align=center;fontSize=15;labelBackgroundColor=none;labelBorderColor=none;verticalAlign=middle;strokeWidth=3;" parent="1" vertex="1">
          <mxGeometry x="800" y="500" width="200" height="170" as="geometry" />
        </mxCell>
        <mxCell id="rnPItVgiRQsCZyyG9S52-84" value="id (int)" style="shape=partialRectangle;top=0;left=0;right=0;bottom=1;align=center;verticalAlign=middle;fillColor=none;spacingLeft=34;spacingRight=4;overflow=hidden;rotatable=0;points=[[0,0.5],[1,0.5]];portConstraint=eastwest;dropTarget=0;fontStyle=5;fontSize=15;labelBackgroundColor=none;labelBorderColor=none;strokeWidth=3;" parent="rnPItVgiRQsCZyyG9S52-83" vertex="1">
          <mxGeometry y="26" width="200" height="30" as="geometry" />
        </mxCell>
        <mxCell id="rnPItVgiRQsCZyyG9S52-85" value="PK" style="shape=partialRectangle;top=0;left=0;bottom=0;fillColor=none;align=center;verticalAlign=middle;spacingLeft=4;spacingRight=4;overflow=hidden;rotatable=0;points=[];portConstraint=eastwest;part=1;fontSize=15;labelBackgroundColor=none;labelBorderColor=none;strokeWidth=3;fontStyle=1" parent="rnPItVgiRQsCZyyG9S52-84" vertex="1" connectable="0">
          <mxGeometry width="30" height="30" as="geometry" />
        </mxCell>
        <mxCell id="rnPItVgiRQsCZyyG9S52-90" value="client_id (int)" style="shape=partialRectangle;top=0;left=0;right=0;bottom=0;align=center;verticalAlign=middle;fillColor=none;spacingLeft=34;spacingRight=4;overflow=hidden;rotatable=0;points=[[0,0.5],[1,0.5]];portConstraint=eastwest;dropTarget=0;fontSize=15;labelBackgroundColor=none;labelBorderColor=none;strokeWidth=3;fontStyle=1" parent="rnPItVgiRQsCZyyG9S52-83" vertex="1">
          <mxGeometry y="56" width="200" height="26" as="geometry" />
        </mxCell>
        <mxCell id="rnPItVgiRQsCZyyG9S52-91" value="FK" style="shape=partialRectangle;top=0;left=0;bottom=0;fillColor=none;align=center;verticalAlign=middle;spacingLeft=4;spacingRight=4;overflow=hidden;rotatable=0;points=[];portConstraint=eastwest;part=1;fontSize=15;labelBackgroundColor=none;labelBorderColor=none;strokeWidth=3;fontStyle=1" parent="rnPItVgiRQsCZyyG9S52-90" vertex="1" connectable="0">
          <mxGeometry width="30" height="26" as="geometry" />
        </mxCell>
        <mxCell id="rnPItVgiRQsCZyyG9S52-86" value="day (date)" style="shape=partialRectangle;top=0;left=0;right=0;bottom=0;align=center;verticalAlign=middle;fillColor=none;spacingLeft=34;spacingRight=4;overflow=hidden;rotatable=0;points=[[0,0.5],[1,0.5]];portConstraint=eastwest;dropTarget=0;fontSize=15;labelBackgroundColor=none;labelBorderColor=none;strokeWidth=3;fontStyle=1" parent="rnPItVgiRQsCZyyG9S52-83" vertex="1">
          <mxGeometry y="82" width="200" height="26" as="geometry" />
        </mxCell>
        <mxCell id="rnPItVgiRQsCZyyG9S52-87" value="" style="shape=partialRectangle;top=0;left=0;bottom=0;fillColor=none;align=center;verticalAlign=middle;spacingLeft=4;spacingRight=4;overflow=hidden;rotatable=0;points=[];portConstraint=eastwest;part=1;fontSize=15;labelBackgroundColor=none;labelBorderColor=none;strokeWidth=3;fontStyle=1" parent="rnPItVgiRQsCZyyG9S52-86" vertex="1" connectable="0">
          <mxGeometry width="30" height="26" as="geometry" />
        </mxCell>
        <mxCell id="rnPItVgiRQsCZyyG9S52-88" value="hour (time)" style="shape=partialRectangle;top=0;left=0;right=0;bottom=0;align=center;verticalAlign=middle;fillColor=none;spacingLeft=34;spacingRight=4;overflow=hidden;rotatable=0;points=[[0,0.5],[1,0.5]];portConstraint=eastwest;dropTarget=0;fontSize=15;labelBackgroundColor=none;labelBorderColor=none;strokeWidth=3;fontStyle=1" parent="rnPItVgiRQsCZyyG9S52-83" vertex="1">
          <mxGeometry y="108" width="200" height="26" as="geometry" />
        </mxCell>
        <mxCell id="rnPItVgiRQsCZyyG9S52-89" value="" style="shape=partialRectangle;top=0;left=0;bottom=0;fillColor=none;align=center;verticalAlign=middle;spacingLeft=4;spacingRight=4;overflow=hidden;rotatable=0;points=[];portConstraint=eastwest;part=1;fontSize=15;labelBackgroundColor=none;labelBorderColor=none;strokeWidth=3;fontStyle=1" parent="rnPItVgiRQsCZyyG9S52-88" vertex="1" connectable="0">
          <mxGeometry width="30" height="26" as="geometry" />
        </mxCell>
        <mxCell id="rnPItVgiRQsCZyyG9S52-92" value="status (boolean)" style="shape=partialRectangle;top=0;left=0;right=0;bottom=0;align=center;verticalAlign=middle;fillColor=none;spacingLeft=34;spacingRight=4;overflow=hidden;rotatable=0;points=[[0,0.5],[1,0.5]];portConstraint=eastwest;dropTarget=0;fontSize=15;labelBackgroundColor=none;labelBorderColor=none;strokeWidth=3;fontStyle=1" parent="rnPItVgiRQsCZyyG9S52-83" vertex="1">
          <mxGeometry y="134" width="200" height="26" as="geometry" />
        </mxCell>
        <mxCell id="rnPItVgiRQsCZyyG9S52-93" value="" style="shape=partialRectangle;top=0;left=0;bottom=0;fillColor=none;align=center;verticalAlign=middle;spacingLeft=4;spacingRight=4;overflow=hidden;rotatable=0;points=[];portConstraint=eastwest;part=1;fontSize=15;labelBackgroundColor=none;labelBorderColor=none;strokeWidth=3;fontStyle=1" parent="rnPItVgiRQsCZyyG9S52-92" vertex="1" connectable="0">
          <mxGeometry width="30" height="26" as="geometry" />
        </mxCell>
        <mxCell id="rnPItVgiRQsCZyyG9S52-94" value="" style="shape=partialRectangle;top=0;left=0;right=0;bottom=0;align=center;verticalAlign=middle;fillColor=none;spacingLeft=34;spacingRight=4;overflow=hidden;rotatable=0;points=[[0,0.5],[1,0.5]];portConstraint=eastwest;dropTarget=0;fontSize=15;labelBackgroundColor=none;labelBorderColor=none;strokeWidth=3;fontStyle=1" parent="rnPItVgiRQsCZyyG9S52-83" vertex="1">
          <mxGeometry y="160" width="200" height="10" as="geometry" />
        </mxCell>
        <mxCell id="rnPItVgiRQsCZyyG9S52-95" value="" style="shape=partialRectangle;top=0;left=0;bottom=0;fillColor=none;align=center;verticalAlign=middle;spacingLeft=4;spacingRight=4;overflow=hidden;rotatable=0;points=[];portConstraint=eastwest;part=1;fontSize=15;labelBackgroundColor=none;labelBorderColor=none;strokeWidth=3;fontStyle=1" parent="rnPItVgiRQsCZyyG9S52-94" vertex="1" connectable="0">
          <mxGeometry width="30" height="10" as="geometry" />
        </mxCell>
        <mxCell id="Xz1C0zymuKUp1sYooSed-1" value="client_status (int)" style="shape=partialRectangle;top=0;left=0;right=0;bottom=0;align=center;verticalAlign=middle;fillColor=none;spacingLeft=34;spacingRight=4;overflow=hidden;rotatable=0;points=[[0,0.5],[1,0.5]];portConstraint=eastwest;dropTarget=0;fontSize=15;labelBackgroundColor=none;labelBorderColor=none;strokeWidth=3;fontStyle=1" vertex="1" parent="1">
          <mxGeometry x="800" y="362" width="200" height="26" as="geometry" />
        </mxCell>
        <mxCell id="Xz1C0zymuKUp1sYooSed-2" value="FK" style="shape=partialRectangle;top=0;left=0;bottom=0;fillColor=none;align=center;verticalAlign=middle;spacingLeft=4;spacingRight=4;overflow=hidden;rotatable=0;points=[];portConstraint=eastwest;part=1;fontSize=15;labelBackgroundColor=none;labelBorderColor=none;strokeWidth=3;fontStyle=1" vertex="1" connectable="0" parent="Xz1C0zymuKUp1sYooSed-1">
          <mxGeometry width="30" height="26" as="geometry" />
        </mxCell>
        <mxCell id="Xz1C0zymuKUp1sYooSed-3" value="count_hour (int)" style="shape=partialRectangle;top=0;left=0;right=0;bottom=0;align=center;verticalAlign=middle;fillColor=none;spacingLeft=34;spacingRight=4;overflow=hidden;rotatable=0;points=[[0,0.5],[1,0.5]];portConstraint=eastwest;dropTarget=0;fontSize=15;labelBackgroundColor=none;labelBorderColor=none;strokeWidth=3;fontStyle=1" vertex="1" parent="1">
          <mxGeometry x="800" y="386" width="200" height="26" as="geometry" />
        </mxCell>
        <mxCell id="Xz1C0zymuKUp1sYooSed-5" value="discount_hour (int)" style="shape=partialRectangle;top=0;left=0;right=0;bottom=0;align=center;verticalAlign=middle;fillColor=none;spacingLeft=34;spacingRight=4;overflow=hidden;rotatable=0;points=[[0,0.5],[1,0.5]];portConstraint=eastwest;dropTarget=0;fontSize=15;labelBackgroundColor=none;labelBorderColor=none;strokeWidth=3;fontStyle=1" vertex="1" parent="1">
          <mxGeometry x="800" y="413" width="200" height="26" as="geometry" />
        </mxCell>
        <mxCell id="Xz1C0zymuKUp1sYooSed-6" value="" style="shape=partialRectangle;top=0;left=0;bottom=0;fillColor=none;align=center;verticalAlign=middle;spacingLeft=4;spacingRight=4;overflow=hidden;rotatable=0;points=[];portConstraint=eastwest;part=1;fontSize=15;labelBackgroundColor=none;labelBorderColor=none;strokeWidth=3;fontStyle=1" vertex="1" connectable="0" parent="Xz1C0zymuKUp1sYooSed-5">
          <mxGeometry width="30" height="26" as="geometry" />
        </mxCell>
      </root>
    </mxGraphModel>
  </diagram>
</mxfile>
